# xmcd CD database file
#
# Track frame offsets:
#	182
#	29215
#	71345
#	95102
#	109540
#	134570
#	156170
#	172250
#	199055
#	217725
#	237460
#	256835
#	285235
#	295410
#	329375
#
# Disc length: 4689 seconds
#
# Revision: 2
# Processed by: cddbd v1.4PL0 Copyright (c) Steve Scherf et al.
# Submitted via: CDex 1.40Release
#
DISCID=e7124f0f
DTITLE=John Mayall - Room To Move 1969-1974 - Disc 1
DYEAR=1900
DGENRE=
TTITLE0=The Laws Must Change
TTITLE1=California
TTITLE2=Room To Move
TTITLE3=Don't Waste My Time
TTITLE4=Counting The Days
TTITLE5=When I Go
TTITLE6=To A Princess
TTITLE7=Nature's Disappearing
TTITLE8=Took The Car
TTITLE9=My Pretty Girl
TTITLE10=Prisons On The Road
TTITLE11=Accidental Suicide
TTITLE12=Boogie Albert
TTITLE13=Television Eye
TTITLE14=Home Again
EXTD=
EXTT0=
EXTT1=
EXTT2=
EXTT3=
EXTT4=
EXTT5=
EXTT6=
EXTT7=
EXTT8=
EXTT9=
EXTT10=
EXTT11=
EXTT12=
EXTT13=
EXTT14=
PLAYORDER=
